<?xml version="1.0" encoding="UTF-8"?>
<svg id="Layer_1" data-name="Layer 1" xmlns="http://www.w3.org/2000/svg" viewBox="0 0 512 512">
  <defs>
    <style>
      .cls-1 {
        fill: #fff;
      }

      .cls-2 {
        fill: #002048;
      }
    </style>
  </defs>
  <circle class="cls-2" cx="256" cy="256" r="256"/>
  <path class="cls-1" d="M160.36,133.75l61.35,81.92c5.59,7.47,8.62,16.55,8.62,25.88v49.52s-4.25,59.69-42.48,76.66c-38.23,16.97-75.41,11.14-95.1-3.81-19.69-14.95-24.61-29.56-24.94-48.59s8.53-45.87,38.72-45.53c30.19.34,37.74,25.82,37.41,46.21-.33,20.39,5.25,42.13,26.91,42.81,21.66.68,21-23.11,21-31.26s2.63-18.35-14.11-36.36c-6.94-7.46-11.96-12.83-15.46-16.55-4.38-4.65-6.78-10.81-6.7-17.2.29-23.53.5-83.33-4.07-120.13-.62-5.03,5.81-7.63,8.85-3.57Z"/>
  <path class="cls-1" d="M226.24,140.67h56.23c14.65,0,27.24,10.44,29.91,24.84,5.12,27.62,15.48,68.94,62.43,104.52,0,0,33.89-26.64,1.43-51.31-32.46-24.67-21.29-79.72,24.41-79.72s47,32.72,47,41.55.52,24.93-24.15,56.61c-11.12,14.28-20.02,25.34-26.44,33.18-7.75,9.45-11.99,21.29-11.99,33.51v54.58s-.43,10.22,8.36,31.04c1.38,3.26-1,6.87-4.54,6.87h-46.09c-19.85,0-35.66-16.32-35.38-36.17,0-.15,0-.3,0-.45v-45.19c0-7.15-1.8-14.18-5.25-20.45l-80.28-146.1c-1.81-3.29.57-7.31,4.33-7.31Z"/>
</svg>